<svg version="1.1" xmlns="http://www.w3.org/2000/svg" viewBox="-16.455799683250028 -17.699229182504343 32.911599366500056 32.959230717351005" fill="none" stroke="black" stroke-width="0.6%" vector-effect="non-scaling-stroke">
    <path d="M 14.68552 -5.57287 L 3.02392 -14.73925" />
    <path d="M 5.23285 4.14115 L 4.54287 4.23961 L 4.54287 -0.17244" />
    <path d="M 5.23285 -13.52599 L 4.66969 -13.44563" />
    <path d="M 5.23285 4.14115 L 5.23285 -0.14968" />
    <path d="M 5.23285 -13.00297 L 5.23285 -13.52599 L 3.6649 -14.75845 L 3.10174 -14.67808" />
    <path d="M -14.68552 -12.21206 A 9.625 3.22357 360 0 1 -15.4558 -13.47565 A 9.625 3.22357 360 0 1 3.02392 -14.73925" />
    <path d="M -14.68552 -12.09428 L -14.68552 -12.21206 L -3.02392 -3.04567" />
    <path d="M -15.4558 -12.53341 A 9.625 3.22357 180 0 0 -15.34499 -12.04567" />
    <path d="M 14.68552 -5.57287 A 9.625 3.22357 360 0 1 15.4558 -4.30927 A 9.625 3.22357 360 0 1 -3.02392 -3.04567" />
    <path d="M -3.02392 -2.10343 L -3.02392 -3.04567" />
    <path d="M -3.02392 -2.10343 A 9.625 3.22357 180 0 0 15.4558 -3.36702" />
    <path d="M -3.7589 -2.68114 L -3.02392 -2.10343" />
    <path d="M 14.64052 11.53588 L 13.95054 11.63434 L 13.95054 -1.6361" />
    <path d="M 14.64052 -6.13126 L 14.07736 -6.0509" />
    <path d="M 14.64052 11.53588 L 14.64052 -2.06863" />
    <path d="M 14.64052 -5.60824 L 14.64052 -6.13126 L 13.07258 -7.36372 L 12.50942 -7.28335" />
    <path d="M 12.3826 -0.21596 L 12.3826 10.40189 L 13.95054 11.63434" />
    <path d="M 2.97492 -0.28862 L 2.97492 3.00716 L 4.54287 4.23961" />
    <path d="M -14.68552 -12.09428 L -14.73452 -12.13279 L -15.4245 -12.03433 L -15.4245 5.63282 L -13.85655 6.86527 L -13.85655 -10.80187 L -15.4245 -12.03433" />
    <path d="M -13.16657 6.76681 L -13.16657 -10.07587 L -6.01682 -4.45594" />
    <path d="M -13.16657 -10.90034 L -14.68552 -12.09428" />
    <path d="M -13.16657 -10.07587 L -13.16657 -10.90034 L -13.85655 -10.80187" />
    <path d="M -3.7589 -3.50561 L -5.32684 -4.73806 L -6.01682 -4.6396 L -6.01682 13.02755 L -4.44887 14.26 L -4.44887 -3.40714 L -6.01682 -4.6396" />
    <path d="M -3.7589 -2.68114 L -3.7589 -3.50561 L -4.44887 -3.40714" />
    <path d="M -3.7589 14.16154 L -3.7589 -2.68114" />
    <path d="M -2.13428 -1.55729 L -2.13428 0.26443" />
    <path d="M -3.7589 0.49627 L -2.13428 0.26443" />
    <path d="M 0.83737 -0.6112 A 4 1.47739 261.87854 0 1 -0.14824 1.57223 A 4 1.47739 261.87854 0 1 -0.71333 1.38134 L -2.13428 0.26443" />
    <path d="M 1.50934 -0.48663 A 4 1.47739 261.87854 0 1 0.54174 1.47377 L -0.14824 1.57223" />
    <path d="M 1.48242 -0.25169 L 2.29936 -0.36826" />
    <path d="M 13.03344 -1.22873 A 4 1.47739 261.87854 0 1 12.23304 -0.19461 A 4 1.47739 261.87854 0 1 11.66795 -0.38551 L 11.26091 -0.70545" />
    <path d="M 13.78047 -1.54971 A 4 1.47739 261.87854 0 1 12.92301 -0.29308 L 12.23304 -0.19461" />
    <path d="M -13.16657 -6.89846 L -11.54195 -7.1303" />
    <path d="M -6.01682 -2.78737 L -11.54195 -7.1303" />
    <path d="M -11.54195 -8.79887 L -11.54195 -7.1303" />
    <path d="M -13.16657 6.76681 L -13.85655 6.86527" />
    <path d="M -3.7589 14.16154 L -4.44887 14.26" />
    <path d="M -14.49353 -7.33727 L -14.49353 -9.84993 L -14.52803 -9.845 L -14.52803 -7.33234 L -14.49353 -7.33727 Z" />
    <path d="M -14.78752 -10.08101 L -14.49353 -9.84993" />
    <path d="M -5.08585 0.05746 L -5.08585 -2.4552 L -5.12035 -2.45027 L -5.12035 0.06239 L -5.08585 0.05746 Z" />
    <path d="M -5.37984 -2.68628 L -5.08585 -2.4552" />
    <path d="M -14.78752 -10.08101 L -14.82202 -10.07609 L -14.82202 -7.56343 L -14.52803 -7.33234" />
    <path d="M -14.82202 -10.07609 L -14.52803 -9.845" />
    <path d="M -5.37984 -2.68628 L -5.41434 -2.68136 L -5.41434 -0.1687 L -5.12035 0.06239" />
    <path d="M -5.41434 -2.68136 L -5.12035 -2.45027" />
    <path d="M -15.4558 -13.47565 L -15.4558 -12.53341" />
    <path d="M 15.4558 -4.30927 L 15.4558 -3.36702" />
</svg>